<?xml version="1.0" encoding="utf-8"?>
<!-- Generator: Adobe Illustrator 16.0.0, SVG Export Plug-In . SVG Version: 6.00 Build 0)  -->
<!DOCTYPE svg PUBLIC "-//W3C//DTD SVG 1.1//EN" "http://www.w3.org/Graphics/SVG/1.1/DTD/svg11.dtd">
<svg version="1.1" id="Layer_1" xmlns="http://www.w3.org/2000/svg" xmlns:xlink="http://www.w3.org/1999/xlink" x="0px" y="0px"
	 width="514.286px" height="514.286px" viewBox="0 0 514.286 514.286" enable-background="new 0 0 514.286 514.286"
	 xml:space="preserve">
<g>
	<circle fill="none" stroke="#000000" stroke-miterlimit="10" cx="259.599" cy="258.419" r="63.662"/>
	<path fill="none" stroke="#000000" stroke-miterlimit="10" d="M345.787,241.533h32.767
		c-8.211-58.416-58.384-103.363-119.064-103.363s-110.853,44.947-119.064,103.363h32.767v33.953h-32.742
		c8.289,58.329,58.421,103.183,119.04,103.183s110.751-44.854,119.04-103.183h-32.742V241.533z"/>
	<circle fill="none" stroke="#000000" stroke-miterlimit="10" cx="305.53" cy="179.093" r="5.659"/>
	<circle fill="none" stroke="#000000" stroke-miterlimit="10" cx="305.53" cy="337.925" r="5.659"/>
	<circle fill="none" stroke="#000000" stroke-miterlimit="10" cx="188.864" cy="258.51" r="5.659"/>
</g>
<line fill="none" stroke="#000000" stroke-width="0.25" stroke-miterlimit="10" x1="259.495" y1="258.509" x2="259.495" y2="437.369"/>
<line fill="none" stroke="#000000" stroke-width="0.25" stroke-miterlimit="10" x1="188.864" y1="258.509" x2="188.864" y2="408.048"/>
<line fill="none" stroke="#000000" stroke-width="0.25" stroke-miterlimit="10" x1="345.814" y1="258.509" x2="345.814" y2="396.195"/>
<line fill="none" stroke="#000000" stroke-width="0.25" stroke-miterlimit="10" x1="259.495" y1="258.509" x2="259.495" y2="408.048"/>
<line fill="none" stroke="#000000" stroke-width="0.25" stroke-miterlimit="10" x1="323.151" y1="258.509" x2="323.151" y2="425.557"/>
<line fill="none" stroke="#000000" stroke-width="0.25" stroke-miterlimit="10" x1="379.74" y1="255.816" x2="379.74" y2="437.369"/>
<g>
	
		<line fill="none" stroke="#000000" stroke-width="0.25" stroke-miterlimit="10" x1="259.495" y1="432.379" x2="379.74" y2="432.379"/>
	<polygon stroke="#000000" stroke-width="0.25" stroke-miterlimit="10" points="261.945,433.793 259.495,432.379 261.945,430.963 	
		"/>
	<polygon stroke="#000000" stroke-width="0.25" stroke-miterlimit="10" points="377.29,430.963 379.74,432.378 377.29,433.793 	"/>
</g>
<g>
	<path d="M312.248,437.932l0.539-0.539c-0.411-0.443-0.617-0.958-0.617-1.545c0-0.635,0.23-1.18,0.691-1.635
		c0.461-0.455,1.011-0.683,1.651-0.683c0.582,0,1.098,0.197,1.545,0.593l0.545-0.545l0.174,0.155l-0.551,0.551
		c0.418,0.443,0.629,0.965,0.629,1.563c0,0.635-0.232,1.18-0.695,1.635s-1.012,0.683-1.646,0.683c-0.604,0-1.123-0.201-1.558-0.604
		l-0.545,0.545L312.248,437.932z M312.978,437.201l2.88-2.881c-0.387-0.348-0.836-0.521-1.346-0.521
		c-0.564,0-1.047,0.201-1.45,0.604s-0.605,0.885-0.605,1.443C312.457,436.362,312.631,436.813,312.978,437.201z M316.026,434.482
		l-2.88,2.887c0.395,0.351,0.851,0.526,1.366,0.526c0.559,0,1.041-0.202,1.445-0.607c0.406-0.405,0.607-0.886,0.607-1.44
		C316.565,435.32,316.385,434.865,316.026,434.482z"/>
	<path d="M319.866,436.979h0.635v0.27h-0.635v0.856h-0.287v-0.856h-2.438v-0.036l2.688-3.778h0.036V436.979z M319.579,436.979
		v-2.671h-0.036l-1.875,2.635v0.036H319.579z"/>
	<path d="M321.835,437.836h2.145v0.27h-2.785l1.683-1.851c0.324-0.355,0.537-0.625,0.642-0.809c0.127-0.22,0.191-0.423,0.191-0.61
		c0-0.292-0.104-0.537-0.314-0.737c-0.21-0.199-0.46-0.299-0.752-0.299c-0.312,0-0.568,0.101-0.772,0.302
		c-0.203,0.202-0.302,0.456-0.293,0.764h-0.288c0.013-0.367,0.106-0.652,0.282-0.856c0.131-0.147,0.294-0.265,0.487-0.351
		c0.194-0.085,0.389-0.128,0.584-0.128c0.376,0,0.695,0.126,0.958,0.38c0.264,0.254,0.396,0.568,0.396,0.943
		c0,0.144-0.022,0.283-0.068,0.419s-0.12,0.276-0.222,0.423c-0.102,0.146-0.186,0.257-0.252,0.335
		c-0.065,0.078-0.169,0.192-0.309,0.345L321.835,437.836z"/>
	<path d="M325.25,437.746c0.048-0.048,0.105-0.072,0.174-0.072c0.067,0,0.125,0.024,0.173,0.072s0.072,0.105,0.072,0.174
		c0,0.067-0.024,0.126-0.072,0.174s-0.105,0.071-0.173,0.071c-0.068,0-0.126-0.023-0.174-0.071s-0.072-0.106-0.072-0.174
		C325.177,437.852,325.202,437.794,325.25,437.746z"/>
	<path d="M329.531,433.859h-1.509l-0.377,1.222c0.1-0.032,0.213-0.048,0.341-0.048c0.432,0,0.795,0.148,1.09,0.446
		c0.296,0.297,0.443,0.661,0.443,1.093c0,0.459-0.156,0.84-0.47,1.141c-0.313,0.302-0.7,0.452-1.159,0.452
		c-0.271,0-0.526-0.066-0.764-0.2s-0.428-0.316-0.571-0.548l0.263-0.108c0.116,0.18,0.271,0.323,0.468,0.429
		c0.195,0.105,0.398,0.158,0.61,0.158c0.38,0,0.697-0.126,0.952-0.38c0.256-0.254,0.384-0.57,0.384-0.949
		c0-0.355-0.13-0.655-0.39-0.898s-0.568-0.365-0.928-0.365c-0.232,0-0.462,0.067-0.689,0.203l0.587-1.916h1.719V433.859z"/>
	<path d="M330.794,435.339v0.347h0.012c0.064-0.127,0.159-0.228,0.285-0.299c0.126-0.072,0.263-0.108,0.41-0.108
		c0.371,0,0.631,0.168,0.778,0.504c0.072-0.164,0.18-0.289,0.323-0.375s0.306-0.129,0.485-0.129c0.327,0,0.552,0.096,0.674,0.285
		s0.183,0.458,0.183,0.806v1.736h-0.27v-1.772c0-0.256-0.039-0.453-0.117-0.593c-0.077-0.14-0.236-0.21-0.476-0.21
		c-0.476,0-0.713,0.327-0.713,0.982v1.593h-0.27v-1.707c0-0.264-0.042-0.474-0.126-0.632c-0.084-0.157-0.247-0.236-0.491-0.236
		c-0.459,0-0.688,0.352-0.688,1.054v1.521h-0.27v-2.767H330.794z"/>
	<path d="M335.136,435.339v0.347h0.012c0.064-0.127,0.159-0.228,0.285-0.299c0.126-0.072,0.263-0.108,0.41-0.108
		c0.371,0,0.631,0.168,0.778,0.504c0.072-0.164,0.18-0.289,0.323-0.375s0.306-0.129,0.485-0.129c0.327,0,0.552,0.096,0.674,0.285
		s0.183,0.458,0.183,0.806v1.736h-0.27v-1.772c0-0.256-0.039-0.453-0.117-0.593c-0.077-0.14-0.236-0.21-0.476-0.21
		c-0.476,0-0.713,0.327-0.713,0.982v1.593h-0.27v-1.707c0-0.264-0.042-0.474-0.126-0.632c-0.084-0.157-0.247-0.236-0.491-0.236
		c-0.459,0-0.688,0.352-0.688,1.054v1.521h-0.27v-2.767H335.136z"/>
</g>
<g>
	
		<line fill="none" stroke="#000000" stroke-width="0.25" stroke-miterlimit="10" x1="259.495" y1="418.192" x2="323.163" y2="418.192"/>
	<polygon stroke="#000000" stroke-width="0.25" stroke-miterlimit="10" points="261.945,419.606 259.495,418.192 261.945,416.776 	
		"/>
	<polygon stroke="#000000" stroke-width="0.25" stroke-miterlimit="10" points="320.713,416.776 323.163,418.191 320.713,419.606 	
		"/>
</g>
<g>
	<path d="M282.554,423.703l0.539-0.539c-0.411-0.443-0.616-0.958-0.616-1.545c0-0.635,0.23-1.18,0.691-1.635
		s1.011-0.683,1.649-0.683c0.583,0,1.099,0.197,1.546,0.593l0.545-0.545l0.174,0.155l-0.552,0.551
		c0.42,0.443,0.629,0.965,0.629,1.563c0,0.635-0.231,1.18-0.694,1.635s-1.013,0.683-1.647,0.683c-0.603,0-1.122-0.201-1.557-0.604
		l-0.545,0.545L282.554,423.703z M283.285,422.973l2.881-2.881c-0.387-0.348-0.836-0.521-1.348-0.521
		c-0.562,0-1.046,0.201-1.449,0.604s-0.604,0.885-0.604,1.443C282.764,422.134,282.938,422.585,283.285,422.973z M286.333,420.254
		l-2.881,2.887c0.396,0.351,0.851,0.526,1.365,0.526c0.56,0,1.041-0.202,1.446-0.607s0.608-0.886,0.608-1.44
		C286.873,421.092,286.693,420.637,286.333,420.254z"/>
	<path d="M288.429,423.607h2.145v0.27h-2.785l1.683-1.851c0.323-0.355,0.537-0.625,0.641-0.809c0.128-0.22,0.192-0.423,0.192-0.61
		c0-0.292-0.105-0.537-0.314-0.737c-0.21-0.199-0.461-0.299-0.752-0.299c-0.312,0-0.569,0.101-0.772,0.302
		c-0.204,0.202-0.302,0.456-0.294,0.764h-0.287c0.012-0.367,0.105-0.652,0.281-0.856c0.132-0.147,0.295-0.265,0.488-0.351
		c0.193-0.085,0.389-0.128,0.584-0.128c0.375,0,0.694,0.126,0.958,0.38s0.396,0.568,0.396,0.943c0,0.144-0.023,0.283-0.069,0.419
		s-0.119,0.276-0.221,0.423c-0.103,0.146-0.187,0.257-0.252,0.335s-0.169,0.192-0.309,0.345L288.429,423.607z"/>
	<path d="M292.142,423.607h2.145v0.27h-2.785l1.683-1.851c0.323-0.355,0.537-0.625,0.641-0.809c0.128-0.22,0.192-0.423,0.192-0.61
		c0-0.292-0.105-0.537-0.314-0.737c-0.21-0.199-0.461-0.299-0.752-0.299c-0.312,0-0.569,0.101-0.772,0.302
		c-0.204,0.202-0.302,0.456-0.294,0.764h-0.287c0.012-0.367,0.105-0.652,0.281-0.856c0.132-0.147,0.295-0.265,0.488-0.351
		c0.193-0.085,0.389-0.128,0.584-0.128c0.375,0,0.694,0.126,0.958,0.38s0.396,0.568,0.396,0.943c0,0.144-0.023,0.283-0.069,0.419
		s-0.119,0.276-0.221,0.423c-0.103,0.146-0.187,0.257-0.252,0.335s-0.169,0.192-0.309,0.345L292.142,423.607z"/>
	<path d="M295.555,423.518c0.049-0.048,0.106-0.072,0.174-0.072c0.068,0,0.126,0.024,0.174,0.072s0.072,0.105,0.072,0.174
		c0,0.067-0.024,0.126-0.072,0.174s-0.105,0.071-0.174,0.071c-0.067,0-0.125-0.023-0.174-0.071
		c-0.048-0.048-0.071-0.106-0.071-0.174C295.484,423.623,295.507,423.565,295.555,423.518z"/>
	<path d="M299.837,419.631h-1.509l-0.378,1.222c0.101-0.032,0.214-0.048,0.342-0.048c0.432,0,0.795,0.148,1.09,0.446
		c0.296,0.297,0.443,0.661,0.443,1.093c0,0.459-0.157,0.84-0.47,1.141c-0.313,0.302-0.7,0.452-1.159,0.452
		c-0.271,0-0.526-0.066-0.764-0.2s-0.429-0.316-0.572-0.548l0.264-0.108c0.116,0.18,0.271,0.323,0.467,0.429
		c0.196,0.105,0.399,0.158,0.611,0.158c0.379,0,0.696-0.126,0.952-0.38s0.384-0.57,0.384-0.949c0-0.355-0.13-0.655-0.39-0.898
		s-0.569-0.365-0.929-0.365c-0.231,0-0.461,0.067-0.688,0.203l0.587-1.916h1.719V419.631z"/>
	<path d="M301.101,421.11v0.347h0.012c0.064-0.127,0.159-0.228,0.285-0.299c0.125-0.072,0.262-0.108,0.41-0.108
		c0.371,0,0.631,0.168,0.778,0.504c0.071-0.164,0.18-0.289,0.323-0.375s0.306-0.129,0.485-0.129c0.327,0,0.552,0.096,0.674,0.285
		c0.121,0.189,0.183,0.458,0.183,0.806v1.736h-0.27v-1.772c0-0.256-0.039-0.453-0.117-0.593s-0.236-0.21-0.476-0.21
		c-0.476,0-0.713,0.327-0.713,0.982v1.593h-0.27v-1.707c0-0.264-0.042-0.474-0.126-0.632c-0.084-0.157-0.247-0.236-0.491-0.236
		c-0.459,0-0.688,0.352-0.688,1.054v1.521h-0.27v-2.767H301.101z"/>
	<path d="M305.443,421.11v0.347h0.012c0.064-0.127,0.159-0.228,0.285-0.299c0.125-0.072,0.262-0.108,0.41-0.108
		c0.371,0,0.631,0.168,0.778,0.504c0.071-0.164,0.18-0.289,0.323-0.375s0.306-0.129,0.485-0.129c0.327,0,0.552,0.096,0.674,0.285
		c0.121,0.189,0.183,0.458,0.183,0.806v1.736h-0.27v-1.772c0-0.256-0.039-0.453-0.117-0.593s-0.236-0.21-0.476-0.21
		c-0.476,0-0.713,0.327-0.713,0.982v1.593h-0.27v-1.707c0-0.264-0.042-0.474-0.126-0.632c-0.084-0.157-0.247-0.236-0.491-0.236
		c-0.459,0-0.688,0.352-0.688,1.054v1.521h-0.27v-2.767H305.443z"/>
</g>
<g>
	
		<line fill="none" stroke="#000000" stroke-width="0.25" stroke-miterlimit="10" x1="188.864" y1="405.346" x2="259.474" y2="405.346"/>
	<polygon stroke="#000000" stroke-width="0.25" stroke-miterlimit="10" points="191.314,406.76 188.864,405.346 191.314,403.93 	"/>
	<polygon stroke="#000000" stroke-width="0.25" stroke-miterlimit="10" points="257.024,403.93 259.474,405.345 257.024,406.76 	"/>
</g>
<polygon stroke="#000000" stroke-width="0.25" stroke-miterlimit="10" points="188.131,255.777 188.864,258.509 186.13,257.778 "/>
<g>
	<path d="M212.046,410.761h2.144v0.27h-2.785l1.683-1.851c0.323-0.355,0.537-0.625,0.641-0.809c0.128-0.22,0.192-0.423,0.192-0.61
		c0-0.292-0.105-0.537-0.314-0.737c-0.209-0.199-0.46-0.299-0.751-0.299c-0.312,0-0.569,0.101-0.773,0.302
		c-0.204,0.202-0.301,0.456-0.293,0.764h-0.287c0.012-0.367,0.105-0.652,0.281-0.856c0.132-0.147,0.294-0.265,0.488-0.351
		c0.193-0.085,0.388-0.128,0.584-0.128c0.375,0,0.694,0.126,0.958,0.38s0.395,0.568,0.395,0.943c0,0.144-0.023,0.283-0.069,0.419
		s-0.12,0.276-0.221,0.423c-0.102,0.146-0.186,0.257-0.252,0.335c-0.065,0.078-0.168,0.192-0.308,0.345L212.046,410.761z"/>
	<path d="M217.885,406.784h-1.509l-0.377,1.222c0.1-0.032,0.214-0.048,0.341-0.048c0.432,0,0.795,0.148,1.09,0.446
		c0.295,0.297,0.443,0.661,0.443,1.093c0,0.459-0.157,0.84-0.47,1.141c-0.313,0.302-0.7,0.452-1.159,0.452
		c-0.271,0-0.526-0.066-0.764-0.2c-0.237-0.134-0.428-0.316-0.572-0.548l0.264-0.108c0.116,0.18,0.271,0.323,0.467,0.429
		c0.196,0.105,0.399,0.158,0.611,0.158c0.379,0,0.697-0.126,0.953-0.38c0.255-0.254,0.383-0.57,0.383-0.949
		c0-0.355-0.13-0.655-0.39-0.898c-0.259-0.243-0.569-0.365-0.928-0.365c-0.231,0-0.461,0.067-0.688,0.203l0.587-1.916h1.719V406.784
		z"/>
	<path d="M219.148,408.264v0.347h0.012c0.064-0.127,0.159-0.228,0.285-0.299c0.125-0.072,0.262-0.108,0.41-0.108
		c0.371,0,0.631,0.168,0.778,0.504c0.072-0.164,0.18-0.289,0.324-0.375c0.144-0.086,0.305-0.129,0.485-0.129
		c0.327,0,0.552,0.096,0.674,0.285c0.122,0.189,0.183,0.458,0.183,0.806v1.736h-0.27v-1.772c0-0.256-0.039-0.453-0.117-0.593
		c-0.078-0.14-0.237-0.21-0.476-0.21c-0.475,0-0.713,0.327-0.713,0.982v1.593h-0.27v-1.707c0-0.264-0.042-0.474-0.125-0.632
		c-0.084-0.157-0.248-0.236-0.491-0.236c-0.459,0-0.689,0.352-0.689,1.054v1.521h-0.27v-2.767H219.148z"/>
	<path d="M223.49,408.264v0.347h0.012c0.064-0.127,0.159-0.228,0.285-0.299c0.125-0.072,0.262-0.108,0.41-0.108
		c0.371,0,0.631,0.168,0.778,0.504c0.072-0.164,0.18-0.289,0.324-0.375c0.144-0.086,0.305-0.129,0.485-0.129
		c0.327,0,0.552,0.096,0.674,0.285c0.122,0.189,0.183,0.458,0.183,0.806v1.736h-0.27v-1.772c0-0.256-0.039-0.453-0.117-0.593
		c-0.078-0.14-0.237-0.21-0.476-0.21c-0.475,0-0.713,0.327-0.713,0.982v1.593h-0.27v-1.707c0-0.264-0.042-0.474-0.125-0.632
		c-0.084-0.157-0.248-0.236-0.491-0.236c-0.459,0-0.689,0.352-0.689,1.054v1.521h-0.27v-2.767H223.49z"/>
</g>
<g>
	
		<line fill="none" stroke="#000000" stroke-width="0.25" stroke-miterlimit="10" x1="369.809" y1="275.669" x2="369.809" y2="241.585"/>
	<polygon stroke="#000000" stroke-width="0.25" stroke-miterlimit="10" points="371.222,273.219 369.809,275.669 368.393,273.218 	
		"/>
	<polygon stroke="#000000" stroke-width="0.25" stroke-miterlimit="10" points="368.392,244.035 369.808,241.586 371.222,244.035 	
		"/>
</g>
<polygon stroke="#000000" stroke-width="0.25" stroke-miterlimit="10" points="391.406,255.919 389.992,258.37 388.577,255.918 "/>
<polygon stroke="#000000" stroke-width="0.25" stroke-miterlimit="10" points="326.274,147.824 324.859,145.376 327.689,145.376 "/>
<g>
	<path d="M371.247,263.354v0.713l-0.27-0.138v-0.862h4.516v0.287H371.247z"/>
	<path d="M375.223,260.431v-2.144h0.27v2.785l-1.851-1.683c-0.355-0.323-0.625-0.537-0.809-0.641
		c-0.22-0.128-0.423-0.192-0.61-0.192c-0.292,0-0.537,0.105-0.737,0.314c-0.199,0.21-0.299,0.46-0.299,0.752
		c0,0.311,0.101,0.569,0.302,0.772c0.202,0.204,0.456,0.301,0.764,0.293v0.287c-0.367-0.012-0.652-0.105-0.856-0.281
		c-0.147-0.132-0.264-0.294-0.35-0.488c-0.086-0.193-0.129-0.388-0.129-0.583c0-0.375,0.127-0.695,0.38-0.958
		c0.254-0.264,0.568-0.395,0.943-0.395c0.144,0,0.283,0.023,0.419,0.069s0.276,0.12,0.423,0.221
		c0.146,0.102,0.257,0.186,0.335,0.252s0.192,0.168,0.345,0.308L375.223,260.431z"/>
	<path d="M372.726,257.042h0.347v-0.012c-0.127-0.064-0.228-0.159-0.299-0.284c-0.072-0.126-0.108-0.263-0.108-0.411
		c0-0.371,0.168-0.631,0.504-0.778c-0.164-0.072-0.289-0.18-0.375-0.323c-0.086-0.144-0.129-0.306-0.129-0.485
		c0-0.327,0.096-0.552,0.285-0.674c0.189-0.122,0.458-0.183,0.806-0.183h1.736v0.27h-1.772c-0.256,0-0.453,0.039-0.593,0.117
		c-0.14,0.078-0.21,0.237-0.21,0.476c0,0.476,0.327,0.713,0.982,0.713h1.593v0.27h-1.707c-0.264,0-0.474,0.042-0.632,0.125
		c-0.157,0.084-0.236,0.248-0.236,0.491c0,0.459,0.352,0.689,1.054,0.689h1.521v0.27h-2.767V257.042z"/>
	<path d="M372.726,252.7h0.347v-0.012c-0.127-0.064-0.228-0.159-0.299-0.284c-0.072-0.126-0.108-0.263-0.108-0.411
		c0-0.371,0.168-0.631,0.504-0.778c-0.164-0.072-0.289-0.18-0.375-0.323c-0.086-0.144-0.129-0.306-0.129-0.485
		c0-0.327,0.096-0.552,0.285-0.674c0.189-0.122,0.458-0.183,0.806-0.183h1.736v0.27h-1.772c-0.256,0-0.453,0.039-0.593,0.117
		c-0.14,0.078-0.21,0.237-0.21,0.476c0,0.476,0.327,0.713,0.982,0.713h1.593v0.27h-1.707c-0.264,0-0.474,0.042-0.632,0.125
		c-0.157,0.084-0.236,0.248-0.236,0.491c0,0.459,0.352,0.689,1.054,0.689h1.521v0.27h-2.767V252.7z"/>
</g>
<g>
	
		<line fill="none" stroke="#000000" stroke-width="0.25" stroke-miterlimit="10" x1="259.495" y1="391.371" x2="345.814" y2="391.371"/>
	<polygon stroke="#000000" stroke-width="0.25" stroke-miterlimit="10" points="261.945,392.786 259.495,391.371 261.945,389.956 	
		"/>
	<polygon stroke="#000000" stroke-width="0.25" stroke-miterlimit="10" points="343.365,389.956 345.814,391.37 343.365,392.786 	
		"/>
</g>
<g>
	<path d="M299.142,394.841v-0.27c0.271-0.008,0.499-0.099,0.683-0.272s0.276-0.396,0.276-0.668c0-0.243-0.088-0.451-0.264-0.623
		c-0.176-0.171-0.385-0.257-0.629-0.257c-0.26,0-0.466,0.077-0.62,0.233c-0.154,0.155-0.239,0.363-0.255,0.623h-0.287
		c0.024-0.348,0.138-0.622,0.341-0.824c0.204-0.201,0.479-0.302,0.826-0.302c0.324,0,0.6,0.112,0.83,0.338s0.344,0.5,0.344,0.823
		c0,0.232-0.061,0.441-0.183,0.629c-0.122,0.188-0.287,0.328-0.494,0.42c0.224,0.083,0.403,0.228,0.539,0.431
		c0.136,0.204,0.204,0.426,0.204,0.665c0,0.375-0.126,0.69-0.38,0.946c-0.253,0.256-0.568,0.383-0.943,0.383
		c-0.348,0-0.644-0.109-0.89-0.329s-0.366-0.499-0.362-0.839h0.288c0.024,0.268,0.122,0.484,0.293,0.65
		c0.171,0.166,0.393,0.248,0.665,0.248c0.284,0,0.528-0.103,0.734-0.308c0.206-0.206,0.309-0.45,0.309-0.734
		c0-0.287-0.099-0.52-0.297-0.697C299.672,394.93,299.429,394.841,299.142,394.841z"/>
	<path d="M302.304,392.628c0.184-0.098,0.383-0.146,0.599-0.146c0.216,0,0.416,0.049,0.599,0.146s0.338,0.227,0.464,0.386
		c0.126,0.16,0.233,0.341,0.321,0.542c0.087,0.202,0.152,0.405,0.194,0.611s0.063,0.406,0.063,0.602
		c0,0.248-0.033,0.503-0.099,0.764c-0.066,0.262-0.162,0.514-0.288,0.755c-0.126,0.241-0.299,0.44-0.518,0.596
		c-0.22,0.156-0.465,0.233-0.737,0.233s-0.517-0.077-0.736-0.233c-0.22-0.155-0.393-0.354-0.518-0.596
		c-0.126-0.241-0.222-0.493-0.288-0.755c-0.066-0.261-0.099-0.516-0.099-0.764c0-0.195,0.021-0.396,0.062-0.602
		s0.107-0.409,0.195-0.611c0.088-0.201,0.195-0.382,0.32-0.542C301.965,392.854,302.12,392.726,302.304,392.628z M302.289,396.641
		c0.182,0.138,0.386,0.206,0.614,0.206s0.432-0.068,0.614-0.206s0.325-0.314,0.428-0.53c0.104-0.216,0.182-0.439,0.234-0.671
		c0.052-0.231,0.078-0.455,0.078-0.671c0-0.191-0.026-0.398-0.078-0.619c-0.052-0.222-0.13-0.439-0.234-0.653
		c-0.104-0.214-0.247-0.392-0.428-0.533s-0.386-0.212-0.614-0.212s-0.432,0.07-0.614,0.212s-0.324,0.319-0.428,0.533
		s-0.182,0.432-0.233,0.653c-0.052,0.221-0.078,0.428-0.078,0.619c0,0.216,0.026,0.439,0.078,0.671
		c0.052,0.231,0.129,0.455,0.233,0.671S302.107,396.503,302.289,396.641z"/>
	<path d="M305.489,394.29v0.347h0.012c0.064-0.127,0.159-0.228,0.285-0.299c0.125-0.072,0.262-0.108,0.41-0.108
		c0.371,0,0.631,0.168,0.778,0.504c0.072-0.164,0.18-0.289,0.324-0.375c0.144-0.086,0.305-0.129,0.485-0.129
		c0.327,0,0.552,0.096,0.674,0.285c0.122,0.189,0.183,0.458,0.183,0.806v1.736h-0.27v-1.772c0-0.256-0.039-0.453-0.117-0.593
		c-0.078-0.14-0.237-0.21-0.476-0.21c-0.475,0-0.713,0.327-0.713,0.982v1.593h-0.27v-1.707c0-0.264-0.042-0.474-0.125-0.632
		c-0.084-0.157-0.248-0.236-0.491-0.236c-0.459,0-0.689,0.352-0.689,1.054v1.521h-0.27v-2.767H305.489z"/>
	<path d="M309.831,394.29v0.347h0.012c0.064-0.127,0.159-0.228,0.285-0.299c0.125-0.072,0.262-0.108,0.41-0.108
		c0.371,0,0.631,0.168,0.778,0.504c0.072-0.164,0.18-0.289,0.324-0.375c0.144-0.086,0.305-0.129,0.485-0.129
		c0.327,0,0.552,0.096,0.674,0.285c0.122,0.189,0.183,0.458,0.183,0.806v1.736h-0.27v-1.772c0-0.256-0.039-0.453-0.117-0.593
		c-0.078-0.14-0.237-0.21-0.476-0.21c-0.475,0-0.713,0.327-0.713,0.982v1.593h-0.27v-1.707c0-0.264-0.042-0.474-0.125-0.632
		c-0.084-0.157-0.248-0.236-0.491-0.236c-0.459,0-0.689,0.352-0.689,1.054v1.521h-0.27v-2.767H309.831z"/>
</g>
<g>
	
		<line fill="none" stroke="#000000" stroke-width="0.25" stroke-miterlimit="10" x1="259.495" y1="125.862" x2="351.555" y2="125.862"/>
	<polygon stroke="#000000" stroke-width="0.25" stroke-miterlimit="10" points="261.945,127.276 259.495,125.862 261.945,124.447 	
		"/>
	<polygon stroke="#000000" stroke-width="0.25" stroke-miterlimit="10" points="349.106,124.447 351.555,125.861 349.106,127.276 	
		"/>
</g>
<g>
	<path d="M296.357,129.333v-0.27c0.271-0.008,0.499-0.099,0.683-0.272s0.276-0.396,0.276-0.668c0-0.243-0.088-0.451-0.264-0.623
		c-0.176-0.172-0.385-0.258-0.629-0.258c-0.26,0-0.466,0.078-0.62,0.234c-0.154,0.155-0.239,0.363-0.255,0.623h-0.287
		c0.024-0.347,0.138-0.622,0.341-0.823s0.479-0.303,0.826-0.303c0.324,0,0.6,0.113,0.83,0.338s0.344,0.5,0.344,0.824
		c0,0.231-0.061,0.441-0.183,0.629c-0.122,0.188-0.287,0.327-0.494,0.419c0.224,0.084,0.403,0.228,0.539,0.431
		s0.204,0.425,0.204,0.665c0,0.375-0.126,0.69-0.38,0.946c-0.253,0.255-0.568,0.383-0.943,0.383c-0.348,0-0.644-0.11-0.89-0.33
		s-0.366-0.499-0.362-0.838h0.288c0.024,0.268,0.122,0.484,0.293,0.65c0.171,0.166,0.393,0.249,0.665,0.249
		c0.284,0,0.528-0.103,0.734-0.309s0.309-0.45,0.309-0.733c0-0.288-0.099-0.52-0.297-0.698
		C296.887,129.421,296.645,129.333,296.357,129.333z"/>
	<path d="M299.315,131.279h2.144v0.27h-2.785l1.683-1.851c0.323-0.355,0.537-0.625,0.641-0.809c0.128-0.219,0.192-0.423,0.192-0.611
		c0-0.292-0.105-0.537-0.314-0.737c-0.209-0.199-0.46-0.299-0.751-0.299c-0.312,0-0.569,0.101-0.773,0.303s-0.301,0.456-0.293,0.763
		h-0.287c0.012-0.367,0.105-0.652,0.281-0.856c0.132-0.148,0.294-0.265,0.488-0.351c0.193-0.086,0.388-0.129,0.584-0.129
		c0.375,0,0.694,0.127,0.958,0.38s0.395,0.568,0.395,0.943c0,0.144-0.023,0.284-0.069,0.419c-0.046,0.136-0.12,0.277-0.221,0.422
		c-0.102,0.146-0.186,0.258-0.252,0.335c-0.065,0.078-0.168,0.193-0.308,0.344L299.315,131.279z"/>
	<path d="M302.729,131.189c0.048-0.048,0.106-0.072,0.174-0.072s0.126,0.024,0.174,0.072s0.072,0.106,0.072,0.174
		s-0.024,0.125-0.072,0.173c-0.048,0.048-0.106,0.072-0.174,0.072s-0.125-0.024-0.174-0.072c-0.048-0.048-0.072-0.105-0.072-0.173
		S302.681,131.237,302.729,131.189z"/>
	<path d="M307.011,127.302h-1.509l-0.377,1.222c0.1-0.032,0.214-0.048,0.341-0.048c0.432,0,0.795,0.149,1.09,0.446
		s0.443,0.662,0.443,1.093c0,0.459-0.157,0.839-0.47,1.141c-0.313,0.301-0.7,0.452-1.159,0.452c-0.271,0-0.526-0.067-0.764-0.201
		c-0.237-0.134-0.428-0.316-0.572-0.548l0.264-0.107c0.116,0.18,0.271,0.322,0.467,0.428c0.196,0.105,0.399,0.159,0.611,0.159
		c0.379,0,0.697-0.127,0.953-0.38c0.255-0.253,0.383-0.57,0.383-0.949c0-0.355-0.13-0.655-0.39-0.898
		c-0.259-0.244-0.569-0.365-0.928-0.365c-0.231,0-0.461,0.068-0.688,0.204l0.587-1.917h1.719V127.302z"/>
	<path d="M308.274,128.781v0.348h0.012c0.064-0.128,0.159-0.228,0.285-0.299c0.125-0.072,0.262-0.108,0.41-0.108
		c0.371,0,0.631,0.167,0.778,0.503c0.072-0.164,0.18-0.289,0.324-0.375c0.144-0.085,0.305-0.128,0.485-0.128
		c0.327,0,0.552,0.095,0.674,0.284c0.122,0.19,0.183,0.458,0.183,0.806v1.737h-0.27v-1.773c0-0.255-0.039-0.453-0.117-0.593
		c-0.078-0.14-0.237-0.209-0.476-0.209c-0.475,0-0.713,0.327-0.713,0.982v1.593h-0.27v-1.707c0-0.263-0.042-0.474-0.125-0.632
		c-0.084-0.158-0.248-0.236-0.491-0.236c-0.459,0-0.689,0.352-0.689,1.054v1.521h-0.27v-2.767H308.274z"/>
	<path d="M312.616,128.781v0.348h0.012c0.064-0.128,0.159-0.228,0.285-0.299c0.125-0.072,0.262-0.108,0.41-0.108
		c0.371,0,0.631,0.167,0.778,0.503c0.072-0.164,0.18-0.289,0.323-0.375c0.144-0.085,0.306-0.128,0.485-0.128
		c0.327,0,0.552,0.095,0.674,0.284c0.122,0.19,0.183,0.458,0.183,0.806v1.737h-0.27v-1.773c0-0.255-0.039-0.453-0.117-0.593
		c-0.077-0.14-0.236-0.209-0.476-0.209c-0.476,0-0.713,0.327-0.713,0.982v1.593h-0.27v-1.707c0-0.263-0.042-0.474-0.126-0.632
		c-0.084-0.158-0.247-0.236-0.491-0.236c-0.459,0-0.689,0.352-0.689,1.054v1.521h-0.27v-2.767H312.616z"/>
</g>
<g>
	<path d="M376.617,186.699l0.233,0.174l-0.994,1.407l0.013,0.012c0.191-0.08,0.391-0.12,0.599-0.12c0.431,0,0.802,0.157,1.11,0.47
		c0.31,0.313,0.465,0.686,0.465,1.117c0,0.395-0.15,0.757-0.449,1.084c-0.304,0.327-0.691,0.491-1.162,0.491
		c-0.439,0-0.815-0.153-1.129-0.458c-0.313-0.305-0.47-0.678-0.47-1.117c0-0.355,0.109-0.687,0.329-0.994L376.617,186.699z
		 M376.437,191.065c0.359,0,0.669-0.129,0.929-0.386c0.259-0.258,0.389-0.566,0.389-0.925s-0.13-0.668-0.389-0.925
		c-0.26-0.258-0.569-0.387-0.929-0.387c-0.363,0-0.674,0.129-0.932,0.387c-0.257,0.257-0.386,0.566-0.386,0.925
		c0,0.363,0.129,0.673,0.386,0.928C375.763,190.938,376.074,191.065,376.437,191.065z"/>
	<path d="M379.551,186.846c0.184-0.098,0.383-0.147,0.599-0.147s0.415,0.049,0.599,0.147s0.339,0.227,0.465,0.386
		c0.125,0.16,0.232,0.34,0.32,0.542s0.152,0.405,0.194,0.611s0.062,0.406,0.062,0.602c0,0.248-0.032,0.502-0.099,0.763
		c-0.065,0.262-0.161,0.513-0.287,0.755s-0.299,0.44-0.519,0.596c-0.219,0.156-0.465,0.234-0.736,0.234s-0.517-0.078-0.736-0.234
		s-0.393-0.354-0.519-0.596c-0.125-0.242-0.222-0.493-0.287-0.755c-0.065-0.261-0.099-0.516-0.099-0.763
		c0-0.196,0.021-0.396,0.062-0.602s0.107-0.409,0.194-0.611c0.088-0.202,0.195-0.382,0.321-0.542
		C379.212,187.073,379.368,186.944,379.551,186.846z M379.537,190.859c0.182,0.138,0.386,0.207,0.613,0.207s0.433-0.069,0.614-0.207
		c0.182-0.138,0.324-0.314,0.428-0.53c0.104-0.215,0.182-0.439,0.233-0.671c0.052-0.231,0.078-0.455,0.078-0.67
		c0-0.192-0.026-0.398-0.078-0.62s-0.13-0.439-0.233-0.653c-0.104-0.213-0.246-0.391-0.428-0.533
		c-0.182-0.142-0.387-0.213-0.614-0.213s-0.432,0.071-0.613,0.213c-0.183,0.142-0.325,0.319-0.429,0.533
		c-0.104,0.214-0.182,0.431-0.233,0.653s-0.078,0.428-0.078,0.62c0,0.215,0.026,0.439,0.078,0.67
		c0.052,0.232,0.13,0.456,0.233,0.671C379.211,190.544,379.354,190.721,379.537,190.859z"/>
	<path d="M382.608,187.151c0.103-0.102,0.225-0.152,0.368-0.152c0.145,0,0.267,0.051,0.369,0.152
		c0.102,0.102,0.152,0.225,0.152,0.369c0,0.144-0.051,0.266-0.152,0.368c-0.103,0.102-0.225,0.153-0.369,0.153
		c-0.144,0-0.266-0.051-0.368-0.153c-0.102-0.102-0.152-0.225-0.152-0.368C382.456,187.376,382.506,187.253,382.608,187.151z
		 M383.177,187.322c-0.054-0.056-0.121-0.084-0.201-0.084c-0.079,0-0.146,0.028-0.2,0.084c-0.054,0.056-0.081,0.122-0.081,0.198
		c0,0.076,0.027,0.142,0.081,0.197c0.054,0.056,0.121,0.084,0.2,0.084c0.08,0,0.147-0.028,0.201-0.084
		c0.054-0.056,0.081-0.122,0.081-0.197C383.258,187.444,383.231,187.378,383.177,187.322z"/>
</g>
<g>
	
		<line fill="none" stroke="#000000" stroke-width="0.25" stroke-miterlimit="10" x1="464.517" y1="210.324" x2="346.522" y2="210.324"/>
	<circle fill="#FFFFFF" stroke="#000000" stroke-width="0.25" stroke-miterlimit="10" cx="346.521" cy="210.324" r="0.707"/>
</g>
<g>
	<path d="M470.501,207.649h-0.713l0.138-0.27h0.862v4.516h-0.287V207.649z"/>
	<path d="M473.1,209.128v0.348h0.012c0.064-0.128,0.159-0.228,0.285-0.299c0.126-0.072,0.263-0.108,0.41-0.108
		c0.371,0,0.631,0.167,0.778,0.503c0.072-0.164,0.18-0.289,0.323-0.375c0.144-0.085,0.306-0.128,0.485-0.128
		c0.327,0,0.552,0.095,0.674,0.284c0.122,0.19,0.183,0.458,0.183,0.806v1.737h-0.27v-1.773c0-0.255-0.039-0.453-0.117-0.593
		c-0.077-0.14-0.236-0.209-0.476-0.209c-0.476,0-0.713,0.327-0.713,0.982v1.593h-0.27v-1.707c0-0.263-0.042-0.474-0.126-0.632
		c-0.084-0.158-0.247-0.236-0.491-0.236c-0.459,0-0.688,0.352-0.688,1.054v1.521h-0.27v-2.767H473.1z"/>
	<path d="M477.442,209.128v0.348h0.012c0.064-0.128,0.159-0.228,0.285-0.299c0.126-0.072,0.263-0.108,0.41-0.108
		c0.371,0,0.631,0.167,0.778,0.503c0.072-0.164,0.18-0.289,0.323-0.375c0.144-0.085,0.306-0.128,0.485-0.128
		c0.327,0,0.552,0.095,0.674,0.284c0.122,0.19,0.183,0.458,0.183,0.806v1.737h-0.27v-1.773c0-0.255-0.039-0.453-0.117-0.593
		c-0.077-0.14-0.236-0.209-0.476-0.209c-0.476,0-0.713,0.327-0.713,0.982v1.593h-0.27v-1.707c0-0.263-0.042-0.474-0.126-0.632
		c-0.084-0.158-0.247-0.236-0.491-0.236c-0.459,0-0.688,0.352-0.688,1.054v1.521h-0.27v-2.767H477.442z"/>
	<path d="M485.802,209.128v2.767h-0.27v-0.497h-0.012c-0.1,0.172-0.248,0.308-0.443,0.407s-0.399,0.15-0.611,0.15
		c-0.411,0-0.741-0.14-0.99-0.419c-0.25-0.279-0.375-0.627-0.375-1.042c0-0.411,0.124-0.751,0.371-1.021
		c0.248-0.27,0.575-0.404,0.982-0.404c0.216,0,0.418,0.047,0.608,0.141c0.189,0.094,0.342,0.227,0.458,0.398h0.012v-0.479H485.802z
		 M484.443,209.32c-0.308,0-0.563,0.118-0.767,0.354c-0.204,0.235-0.306,0.509-0.306,0.82c0,0.332,0.101,0.616,0.303,0.854
		c0.201,0.237,0.464,0.356,0.787,0.356c0.34,0,0.606-0.119,0.8-0.356c0.193-0.238,0.291-0.532,0.291-0.883
		c0-0.328-0.103-0.6-0.306-0.818C485.042,209.429,484.774,209.32,484.443,209.32z"/>
	<path d="M486.994,206.954v4.941h-0.27v-4.941H486.994z"/>
	<path d="M489.592,209.128h0.27v1.659c0,0.132-0.001,0.229-0.003,0.291s-0.017,0.144-0.045,0.246
		c-0.027,0.102-0.067,0.188-0.119,0.26c-0.188,0.248-0.464,0.372-0.827,0.372s-0.639-0.124-0.826-0.372
		c-0.052-0.072-0.092-0.159-0.12-0.26c-0.027-0.102-0.043-0.184-0.045-0.246s-0.003-0.159-0.003-0.291v-1.659h0.27v1.563
		c0,0.156,0.007,0.285,0.021,0.389c0.014,0.104,0.044,0.208,0.09,0.312c0.046,0.104,0.119,0.182,0.222,0.233
		c0.102,0.052,0.232,0.078,0.392,0.078c0.16,0,0.291-0.026,0.393-0.078s0.176-0.13,0.222-0.233c0.046-0.104,0.076-0.208,0.09-0.312
		s0.021-0.233,0.021-0.389V209.128z"/>
	<path d="M491.012,209.128v0.348h0.012c0.064-0.128,0.159-0.228,0.285-0.299c0.126-0.072,0.263-0.108,0.41-0.108
		c0.371,0,0.631,0.167,0.778,0.503c0.072-0.164,0.18-0.289,0.323-0.375c0.144-0.085,0.306-0.128,0.485-0.128
		c0.327,0,0.552,0.095,0.674,0.284c0.122,0.19,0.183,0.458,0.183,0.806v1.737h-0.27v-1.773c0-0.255-0.039-0.453-0.117-0.593
		c-0.077-0.14-0.236-0.209-0.476-0.209c-0.476,0-0.713,0.327-0.713,0.982v1.593h-0.27v-1.707c0-0.263-0.042-0.474-0.126-0.632
		c-0.084-0.158-0.247-0.236-0.491-0.236c-0.459,0-0.688,0.352-0.688,1.054v1.521h-0.27v-2.767H491.012z"/>
	<path d="M495.151,208.032c0.048-0.048,0.105-0.072,0.174-0.072c0.067,0,0.125,0.024,0.173,0.072s0.072,0.106,0.072,0.174
		s-0.024,0.125-0.072,0.173s-0.105,0.072-0.173,0.072c-0.068,0-0.126-0.024-0.174-0.072s-0.072-0.105-0.072-0.173
		S495.103,208.08,495.151,208.032z M495.456,209.128v2.767h-0.27v-2.767H495.456z"/>
	<path d="M496.755,209.128v0.432h0.012c0.08-0.156,0.192-0.277,0.336-0.363c0.144-0.085,0.306-0.128,0.485-0.128
		c0.339,0,0.575,0.097,0.709,0.291c0.134,0.193,0.201,0.482,0.201,0.865v1.671h-0.27v-1.671c0-0.144-0.007-0.263-0.021-0.356
		c-0.014-0.094-0.042-0.187-0.084-0.278c-0.041-0.092-0.109-0.16-0.203-0.204s-0.213-0.066-0.356-0.066
		c-0.539,0-0.809,0.403-0.809,1.21v1.365h-0.27v-2.767H496.755z"/>
	<path d="M499.487,208.032c0.048-0.048,0.105-0.072,0.174-0.072c0.067,0,0.125,0.024,0.173,0.072s0.072,0.106,0.072,0.174
		s-0.024,0.125-0.072,0.173s-0.105,0.072-0.173,0.072c-0.068,0-0.126-0.024-0.174-0.072s-0.072-0.105-0.072-0.173
		S499.439,208.08,499.487,208.032z M499.792,209.128v2.767h-0.27v-2.767H499.792z"/>
	<path d="M502.499,209.128h0.27v1.659c0,0.132-0.001,0.229-0.003,0.291s-0.017,0.144-0.045,0.246
		c-0.027,0.102-0.067,0.188-0.119,0.26c-0.188,0.248-0.464,0.372-0.827,0.372s-0.639-0.124-0.826-0.372
		c-0.052-0.072-0.092-0.159-0.12-0.26c-0.027-0.102-0.043-0.184-0.045-0.246s-0.003-0.159-0.003-0.291v-1.659h0.27v1.563
		c0,0.156,0.007,0.285,0.021,0.389c0.014,0.104,0.044,0.208,0.09,0.312c0.046,0.104,0.119,0.182,0.222,0.233
		c0.102,0.052,0.232,0.078,0.392,0.078c0.16,0,0.291-0.026,0.393-0.078s0.176-0.13,0.222-0.233c0.046-0.104,0.076-0.208,0.09-0.312
		s0.021-0.233,0.021-0.389V209.128z"/>
	<path d="M503.918,209.128v0.348h0.012c0.064-0.128,0.159-0.228,0.285-0.299c0.126-0.072,0.263-0.108,0.41-0.108
		c0.371,0,0.631,0.167,0.778,0.503c0.072-0.164,0.18-0.289,0.323-0.375c0.144-0.085,0.306-0.128,0.485-0.128
		c0.327,0,0.552,0.095,0.674,0.284c0.122,0.19,0.183,0.458,0.183,0.806v1.737h-0.27v-1.773c0-0.255-0.039-0.453-0.117-0.593
		c-0.077-0.14-0.236-0.209-0.476-0.209c-0.476,0-0.713,0.327-0.713,0.982v1.593h-0.27v-1.707c0-0.263-0.042-0.474-0.126-0.632
		c-0.084-0.158-0.247-0.236-0.491-0.236c-0.459,0-0.688,0.352-0.688,1.054v1.521h-0.27v-2.767H503.918z"/>
</g>
<line fill="none" stroke="#000000" stroke-width="0.25" stroke-miterlimit="10" stroke-dasharray="1" x1="101.688" y1="258.509" x2="426.442" y2="258.509"/>
<line fill="none" stroke="#000000" stroke-width="0.25" stroke-miterlimit="10" stroke-dasharray="1" x1="183.205" y1="252.851" x2="194.523" y2="264.168"/>
<line fill="none" stroke="#000000" stroke-width="0.25" stroke-miterlimit="10" stroke-dasharray="1" x1="194.651" y1="252.722" x2="183.077" y2="264.297"/>
<line fill="none" stroke="#000000" stroke-width="0.25" stroke-miterlimit="10" x1="188.864" y1="258.509" x2="137.311" y2="206.956"/>
<line fill="none" stroke="#000000" stroke-width="0.25" stroke-miterlimit="10" x1="137.311" y1="206.956" x2="112.267" y2="206.956"/>
<g>
	<path d="M402.525,148.056h0.27v2.605h0.012c0.08-0.156,0.192-0.277,0.336-0.363c0.144-0.085,0.306-0.128,0.485-0.128
		c0.339,0,0.575,0.097,0.709,0.291c0.134,0.193,0.201,0.482,0.201,0.865v1.671h-0.27v-1.671c0-0.144-0.007-0.263-0.021-0.356
		c-0.014-0.094-0.042-0.187-0.084-0.278c-0.041-0.092-0.109-0.16-0.203-0.204s-0.213-0.066-0.356-0.066
		c-0.539,0-0.809,0.403-0.809,1.21v1.365h-0.27V148.056z"/>
	<path d="M406.627,150.17c0.407,0,0.752,0.139,1.033,0.416c0.281,0.278,0.422,0.62,0.422,1.027s-0.141,0.75-0.422,1.027
		c-0.281,0.278-0.626,0.417-1.033,0.417c-0.396,0-0.733-0.141-1.015-0.422c-0.282-0.282-0.423-0.62-0.423-1.015
		c0-0.399,0.14-0.741,0.42-1.024C405.889,150.312,406.228,150.17,406.627,150.17z M406.61,150.421c-0.323,0-0.597,0.118-0.817,0.354
		c-0.222,0.235-0.333,0.517-0.333,0.844c0,0.319,0.111,0.597,0.333,0.833c0.221,0.235,0.494,0.354,0.817,0.354
		c0.339,0,0.624-0.114,0.856-0.342c0.231-0.228,0.347-0.509,0.347-0.844c0-0.339-0.114-0.624-0.344-0.854
		S406.953,150.421,406.61,150.421z"/>
	<path d="M409.005,148.056v4.941h-0.27v-4.941H409.005z"/>
	<path d="M412.329,151.637h-2.401c-0.008,0.347,0.093,0.629,0.303,0.844c0.21,0.216,0.478,0.324,0.806,0.324
		c0.207,0,0.396-0.057,0.565-0.171s0.307-0.267,0.41-0.458l0.228,0.131c-0.263,0.5-0.677,0.749-1.239,0.749
		c-0.399,0-0.723-0.141-0.971-0.422c-0.247-0.282-0.371-0.624-0.371-1.027c0-0.399,0.125-0.738,0.375-1.018
		c0.249-0.279,0.571-0.419,0.967-0.419c0.407,0,0.731,0.142,0.974,0.425C412.214,150.878,412.333,151.226,412.329,151.637z
		 M409.927,151.386h2.132c-0.035-0.264-0.151-0.49-0.347-0.68c-0.196-0.19-0.432-0.285-0.707-0.285c-0.279,0-0.523,0.095-0.73,0.285
		C410.067,150.896,409.952,151.122,409.927,151.386z"/>
	<path d="M414.671,152.823l0.538-0.539c-0.411-0.443-0.616-0.958-0.616-1.545c0-0.635,0.23-1.18,0.691-1.635
		c0.461-0.456,1.011-0.683,1.65-0.683c0.583,0,1.098,0.198,1.545,0.593l0.545-0.545l0.174,0.156l-0.551,0.551
		c0.419,0.443,0.629,0.964,0.629,1.563c0,0.635-0.232,1.18-0.695,1.635c-0.463,0.456-1.012,0.683-1.646,0.683
		c-0.604,0-1.122-0.202-1.558-0.605l-0.545,0.545L414.671,152.823z M415.402,152.092l2.88-2.881
		c-0.387-0.347-0.836-0.521-1.347-0.521c-0.563,0-1.047,0.202-1.449,0.605c-0.403,0.403-0.605,0.884-0.605,1.443
		C414.88,151.254,415.054,151.705,415.402,152.092z M418.45,149.373l-2.881,2.887c0.396,0.352,0.851,0.527,1.366,0.527
		c0.559,0,1.041-0.203,1.446-0.608s0.607-0.885,0.607-1.44C418.989,150.212,418.809,149.756,418.45,149.373z"/>
	<path d="M422.289,151.871h0.635v0.27h-0.635v0.856h-0.287v-0.856h-2.438v-0.036l2.688-3.779h0.036V151.871z M422.001,151.871V149.2
		h-0.036l-1.875,2.635v0.036H422.001z"/>
	<path d="M423.935,150.229v0.348h0.012c0.064-0.128,0.159-0.228,0.285-0.299c0.126-0.072,0.263-0.108,0.41-0.108
		c0.371,0,0.631,0.167,0.778,0.503c0.072-0.164,0.18-0.289,0.323-0.375c0.144-0.085,0.306-0.128,0.485-0.128
		c0.327,0,0.552,0.095,0.674,0.284c0.122,0.19,0.183,0.458,0.183,0.806v1.737h-0.27v-1.773c0-0.255-0.039-0.453-0.117-0.593
		c-0.077-0.14-0.236-0.209-0.476-0.209c-0.476,0-0.713,0.327-0.713,0.982v1.593h-0.27v-1.707c0-0.263-0.042-0.474-0.126-0.632
		c-0.084-0.158-0.247-0.236-0.491-0.236c-0.459,0-0.688,0.352-0.688,1.054v1.521h-0.27v-2.767H423.935z"/>
	<path d="M428.277,150.229v0.348h0.012c0.064-0.128,0.159-0.228,0.285-0.299c0.126-0.072,0.263-0.108,0.41-0.108
		c0.371,0,0.631,0.167,0.778,0.503c0.072-0.164,0.18-0.289,0.323-0.375c0.144-0.085,0.306-0.128,0.485-0.128
		c0.327,0,0.552,0.095,0.674,0.284c0.122,0.19,0.183,0.458,0.183,0.806v1.737h-0.27v-1.773c0-0.255-0.039-0.453-0.117-0.593
		c-0.077-0.14-0.236-0.209-0.476-0.209c-0.476,0-0.713,0.327-0.713,0.982v1.593h-0.27v-1.707c0-0.263-0.042-0.474-0.126-0.632
		c-0.084-0.158-0.247-0.236-0.491-0.236c-0.459,0-0.688,0.352-0.688,1.054v1.521h-0.27v-2.767H428.277z"/>
</g>
<g>
	<path d="M106.614,200.217h0.27v2.605h0.012c0.08-0.156,0.191-0.277,0.335-0.363c0.144-0.085,0.305-0.128,0.485-0.128
		c0.339,0,0.576,0.097,0.71,0.291c0.134,0.193,0.201,0.482,0.201,0.865v1.671h-0.27v-1.671c0-0.144-0.007-0.263-0.021-0.356
		c-0.014-0.094-0.042-0.187-0.084-0.278s-0.11-0.16-0.204-0.204s-0.212-0.066-0.356-0.066c-0.539,0-0.809,0.403-0.809,1.21v1.365
		h-0.27V200.217z"/>
	<path d="M110.716,202.331c0.407,0,0.751,0.139,1.033,0.416c0.281,0.278,0.422,0.62,0.422,1.027s-0.141,0.75-0.422,1.027
		c-0.282,0.278-0.626,0.417-1.033,0.417c-0.395,0-0.733-0.141-1.015-0.422c-0.281-0.282-0.422-0.62-0.422-1.015
		c0-0.399,0.14-0.741,0.419-1.024C109.978,202.473,110.317,202.331,110.716,202.331z M110.698,202.583
		c-0.323,0-0.596,0.118-0.817,0.354c-0.222,0.235-0.333,0.517-0.333,0.844c0,0.319,0.111,0.597,0.333,0.833
		c0.222,0.235,0.494,0.354,0.817,0.354c0.339,0,0.625-0.114,0.856-0.342s0.348-0.509,0.348-0.844c0-0.339-0.115-0.624-0.345-0.854
		C111.328,202.697,111.042,202.583,110.698,202.583z"/>
	<path d="M113.094,200.217v4.941h-0.27v-4.941H113.094z"/>
	<path d="M116.418,203.798h-2.402c-0.008,0.347,0.093,0.629,0.303,0.844c0.209,0.216,0.478,0.324,0.806,0.324
		c0.208,0,0.396-0.057,0.566-0.171c0.169-0.114,0.306-0.267,0.41-0.458l0.228,0.131c-0.264,0.5-0.677,0.749-1.24,0.749
		c-0.399,0-0.723-0.141-0.97-0.422c-0.248-0.282-0.372-0.624-0.372-1.027c0-0.399,0.125-0.738,0.375-1.018
		c0.25-0.279,0.572-0.419,0.967-0.419c0.407,0,0.731,0.142,0.973,0.425C116.303,203.04,116.422,203.387,116.418,203.798z
		 M114.016,203.547h2.132c-0.036-0.264-0.152-0.49-0.347-0.68c-0.196-0.19-0.432-0.285-0.707-0.285c-0.279,0-0.523,0.095-0.73,0.285
		C114.156,203.057,114.04,203.283,114.016,203.547z"/>
	<path d="M118.759,204.984l0.539-0.539c-0.411-0.443-0.617-0.958-0.617-1.545c0-0.635,0.23-1.18,0.691-1.635
		c0.461-0.456,1.011-0.683,1.65-0.683c0.583,0,1.098,0.198,1.545,0.593l0.545-0.545l0.174,0.156l-0.551,0.551
		c0.419,0.443,0.629,0.964,0.629,1.563c0,0.635-0.231,1.18-0.695,1.635c-0.463,0.456-1.012,0.683-1.647,0.683
		c-0.603,0-1.122-0.202-1.557-0.605l-0.545,0.545L118.759,204.984z M119.49,204.253l2.881-2.881
		c-0.387-0.347-0.836-0.521-1.348-0.521c-0.563,0-1.046,0.202-1.449,0.605s-0.605,0.884-0.605,1.443
		C118.969,203.415,119.143,203.866,119.49,204.253z M122.538,201.534l-2.88,2.887c0.395,0.352,0.85,0.527,1.365,0.527
		c0.559,0,1.041-0.203,1.446-0.608s0.608-0.885,0.608-1.44C123.077,202.373,122.897,201.917,122.538,201.534z"/>
	<path d="M126.377,204.032h0.635v0.27h-0.635v0.856h-0.288v-0.856h-2.438v-0.036l2.689-3.779h0.036V204.032z M126.089,204.032
		v-2.671h-0.036l-1.875,2.635v0.036H126.089z"/>
	<path d="M128.023,202.391v0.348h0.012c0.064-0.128,0.159-0.228,0.285-0.299c0.125-0.072,0.262-0.108,0.41-0.108
		c0.371,0,0.631,0.167,0.778,0.503c0.072-0.164,0.18-0.289,0.324-0.375c0.144-0.085,0.305-0.128,0.485-0.128
		c0.327,0,0.552,0.095,0.674,0.284c0.122,0.19,0.183,0.458,0.183,0.806v1.737h-0.27v-1.773c0-0.255-0.039-0.453-0.117-0.593
		c-0.078-0.14-0.237-0.209-0.476-0.209c-0.475,0-0.713,0.327-0.713,0.982v1.593h-0.27v-1.707c0-0.263-0.042-0.474-0.125-0.632
		c-0.084-0.158-0.248-0.236-0.491-0.236c-0.459,0-0.689,0.352-0.689,1.054v1.521h-0.27v-2.767H128.023z"/>
	<path d="M132.365,202.391v0.348h0.012c0.064-0.128,0.159-0.228,0.285-0.299c0.125-0.072,0.262-0.108,0.41-0.108
		c0.371,0,0.631,0.167,0.778,0.503c0.072-0.164,0.18-0.289,0.324-0.375c0.144-0.085,0.305-0.128,0.485-0.128
		c0.327,0,0.552,0.095,0.674,0.284c0.122,0.19,0.183,0.458,0.183,0.806v1.737h-0.27v-1.773c0-0.255-0.039-0.453-0.117-0.593
		c-0.078-0.14-0.237-0.209-0.476-0.209c-0.475,0-0.713,0.327-0.713,0.982v1.593h-0.27v-1.707c0-0.263-0.042-0.474-0.125-0.632
		c-0.084-0.158-0.248-0.236-0.491-0.236c-0.459,0-0.689,0.352-0.689,1.054v1.521h-0.27v-2.767H132.365z"/>
</g>
<g>
	<path d="M402.525,355.483h0.27v2.604h0.012c0.08-0.155,0.192-0.276,0.336-0.362s0.306-0.129,0.485-0.129
		c0.339,0,0.575,0.098,0.709,0.291s0.201,0.481,0.201,0.865v1.671h-0.27v-1.671c0-0.144-0.007-0.263-0.021-0.356
		c-0.014-0.094-0.042-0.187-0.084-0.278c-0.041-0.092-0.109-0.16-0.203-0.204s-0.213-0.065-0.356-0.065
		c-0.539,0-0.809,0.403-0.809,1.21v1.365h-0.27V355.483z"/>
	<path d="M406.627,357.597c0.407,0,0.752,0.139,1.033,0.417c0.281,0.277,0.422,0.619,0.422,1.026s-0.141,0.75-0.422,1.027
		s-0.626,0.416-1.033,0.416c-0.396,0-0.733-0.141-1.015-0.422c-0.282-0.281-0.423-0.62-0.423-1.016c0-0.398,0.14-0.74,0.42-1.023
		C405.889,357.739,406.228,357.597,406.627,357.597z M406.61,357.849c-0.323,0-0.597,0.118-0.817,0.354
		c-0.222,0.235-0.333,0.517-0.333,0.844c0,0.32,0.111,0.598,0.333,0.833c0.221,0.235,0.494,0.354,0.817,0.354
		c0.339,0,0.624-0.114,0.856-0.342c0.231-0.228,0.347-0.509,0.347-0.845c0-0.339-0.114-0.623-0.344-0.853
		S406.953,357.849,406.61,357.849z"/>
	<path d="M409.005,355.483v4.94h-0.27v-4.94H409.005z"/>
	<path d="M412.329,359.064h-2.401c-0.008,0.348,0.093,0.629,0.303,0.845c0.21,0.215,0.478,0.323,0.806,0.323
		c0.207,0,0.396-0.058,0.565-0.171c0.17-0.114,0.307-0.267,0.41-0.458l0.228,0.132c-0.263,0.499-0.677,0.748-1.239,0.748
		c-0.399,0-0.723-0.141-0.971-0.422c-0.247-0.281-0.371-0.624-0.371-1.027c0-0.399,0.125-0.738,0.375-1.018
		c0.249-0.279,0.571-0.42,0.967-0.42c0.407,0,0.731,0.143,0.974,0.426C412.214,358.306,412.333,358.653,412.329,359.064z
		 M409.927,358.812h2.132c-0.035-0.264-0.151-0.49-0.347-0.68c-0.196-0.189-0.432-0.284-0.707-0.284
		c-0.279,0-0.523,0.095-0.73,0.284C410.067,358.322,409.952,358.549,409.927,358.812z"/>
	<path d="M414.671,360.25l0.538-0.539c-0.411-0.443-0.616-0.958-0.616-1.545c0-0.635,0.23-1.18,0.691-1.635s1.011-0.683,1.65-0.683
		c0.583,0,1.098,0.197,1.545,0.593l0.545-0.545l0.174,0.155l-0.551,0.551c0.419,0.443,0.629,0.965,0.629,1.563
		c0,0.635-0.232,1.18-0.695,1.635s-1.012,0.683-1.646,0.683c-0.604,0-1.122-0.201-1.558-0.604l-0.545,0.545L414.671,360.25z
		 M415.402,359.52l2.88-2.881c-0.387-0.348-0.836-0.521-1.347-0.521c-0.563,0-1.047,0.201-1.449,0.604
		c-0.403,0.403-0.605,0.885-0.605,1.443C414.88,358.681,415.054,359.132,415.402,359.52z M418.45,356.801l-2.881,2.887
		c0.396,0.351,0.851,0.526,1.366,0.526c0.559,0,1.041-0.202,1.446-0.607s0.607-0.886,0.607-1.44
		C418.989,357.639,418.809,357.184,418.45,356.801z"/>
	<path d="M422.289,359.298h0.635v0.27h-0.635v0.856h-0.287v-0.856h-2.438v-0.036l2.688-3.778h0.036V359.298z M422.001,359.298
		v-2.671h-0.036l-1.875,2.635v0.036H422.001z"/>
	<path d="M423.935,357.657v0.347h0.012c0.064-0.127,0.159-0.228,0.285-0.299c0.126-0.072,0.263-0.108,0.41-0.108
		c0.371,0,0.631,0.168,0.778,0.504c0.072-0.164,0.18-0.289,0.323-0.375s0.306-0.129,0.485-0.129c0.327,0,0.552,0.096,0.674,0.285
		s0.183,0.458,0.183,0.806v1.736h-0.27v-1.772c0-0.256-0.039-0.453-0.117-0.593c-0.077-0.14-0.236-0.21-0.476-0.21
		c-0.476,0-0.713,0.327-0.713,0.982v1.593h-0.27v-1.707c0-0.264-0.042-0.474-0.126-0.632c-0.084-0.157-0.247-0.236-0.491-0.236
		c-0.459,0-0.688,0.352-0.688,1.054v1.521h-0.27v-2.767H423.935z"/>
	<path d="M428.277,357.657v0.347h0.012c0.064-0.127,0.159-0.228,0.285-0.299c0.126-0.072,0.263-0.108,0.41-0.108
		c0.371,0,0.631,0.168,0.778,0.504c0.072-0.164,0.18-0.289,0.323-0.375s0.306-0.129,0.485-0.129c0.327,0,0.552,0.096,0.674,0.285
		s0.183,0.458,0.183,0.806v1.736h-0.27v-1.772c0-0.256-0.039-0.453-0.117-0.593c-0.077-0.14-0.236-0.21-0.476-0.21
		c-0.476,0-0.713,0.327-0.713,0.982v1.593h-0.27v-1.707c0-0.264-0.042-0.474-0.126-0.632c-0.084-0.157-0.247-0.236-0.491-0.236
		c-0.459,0-0.688,0.352-0.688,1.054v1.521h-0.27v-2.767H428.277z"/>
</g>
<g>
	<polygon stroke="#000000" stroke-width="0.25" stroke-miterlimit="10" points="306.263,176.359 305.53,179.092 308.263,178.361 	
		"/>
	<polyline fill="none" stroke="#000000" stroke-width="0.25" stroke-miterlimit="10" points="429.583,154.794 329.828,154.794 
		305.53,179.092 	"/>
</g>
<g>
	<polygon stroke="#000000" stroke-width="0.25" stroke-miterlimit="10" points="306.263,340.656 305.53,337.924 308.263,338.655 	
		"/>
	<polyline fill="none" stroke="#000000" stroke-width="0.25" stroke-miterlimit="10" points="429.583,362.222 329.828,362.222 
		305.53,337.924 	"/>
</g>
<circle fill="none" stroke="#000000" stroke-width="0.25" stroke-miterlimit="10" stroke-dasharray="1" cx="259.599" cy="258.509" r="91.956"/>
<path fill="none" stroke="#000000" stroke-width="0.25" stroke-miterlimit="10" d="M324.754,145.376
	c38.999,22.569,65.236,64.744,65.236,113.044"/>
<circle fill="none" stroke="#000000" stroke-width="0.25" stroke-miterlimit="10" stroke-dasharray="2" cx="259.495" cy="258.419" r="120.25"/>
<line fill="none" stroke="#000000" stroke-width="0.25" stroke-miterlimit="10" stroke-dasharray="1" x1="329.515" y1="137.123" x2="259.473" y2="258.441"/>
<line fill="none" stroke="#000000" stroke-width="0.25" stroke-miterlimit="10" stroke-dasharray="1" x1="331.307" y1="382.858" x2="259.474" y2="258.442"/>
<line fill="none" stroke="#000000" stroke-width="0.25" stroke-miterlimit="10" x1="259.599" y1="258.222" x2="259.599" y2="121.184"/>
<line fill="none" stroke="#000000" stroke-width="0.25" stroke-miterlimit="10" x1="351.555" y1="258.509" x2="351.555" y2="121.184"/>
</svg>
